<svg width="740" height="159" viewBox="0 0 740 159" fill="none" xmlns="http://www.w3.org/2000/svg">
<path d="M35.3787 118.36L20.8858 126.205C18.1318 127.696 14.7397 127.306 12.3956 125.23C7.58595 120.97 0 124.384 0 130.809V133.416C0 137.477 2.83229 140.988 6.80135 141.848L15.7186 143.779C19.9025 144.685 24.2741 143.979 27.9602 141.802L38.3956 135.64C43.5332 132.606 49.8852 132.488 55.1322 135.328L65.4989 140.939C70.4133 143.599 76.3211 143.675 81.3015 141.14L89.3277 137.056C93.7614 134.8 98.961 134.599 103.556 136.506L116.667 141.949C121.582 143.989 127.167 143.611 131.761 140.927L134.942 139.068C140.738 135.682 147.985 136.024 153.437 139.94L157.825 143.093C163.603 147.244 171.355 147.358 177.253 143.377L183.932 138.87C188.87 135.538 195.193 135.033 200.597 137.54L207.557 140.77C213.393 143.478 220.259 142.659 225.294 138.653L227.425 136.959C233.535 132.099 242.17 132.025 248.362 136.78L249.129 137.369C255.153 141.996 263.517 142.064 269.616 137.536L271.723 135.972C277.586 131.62 285.574 131.498 291.567 135.669L295.489 138.399C301.348 142.476 309.129 142.46 314.97 138.358L322.39 133.147C328.49 128.864 336.672 129.068 342.551 133.65C347.804 137.744 354.967 138.384 360.861 135.284L365.357 132.92C370.386 130.276 376.402 130.318 381.393 133.033L386.289 135.696C391.614 138.592 398.077 138.435 403.254 135.282L409.757 131.322C415.188 128.015 422.01 128.015 427.441 131.322L433.8 135.194C439.054 138.394 445.627 138.505 450.986 135.486L454.043 133.764C459.577 130.645 466.389 130.873 471.702 134.354L477.963 138.454C484.098 142.473 492.12 142.104 497.86 137.538L499.37 136.337C505.11 131.772 513.131 131.402 519.267 135.421L525.209 139.314C530.689 142.903 537.742 143.025 543.342 139.627L546.525 137.696C550.9 135.041 556.238 134.499 561.058 136.219L564.626 137.492C569.706 139.305 575.345 138.6 579.822 135.592L585.42 131.83C590.79 128.222 597.742 127.974 603.355 131.191L609.69 134.822C615.505 138.155 622.785 137.489 627.899 133.156C633.013 128.824 640.292 128.158 646.108 131.491L653.508 135.732C658.553 138.624 664.727 138.736 669.873 136.03L676.937 132.315C681.317 130.012 686.483 129.732 691.086 131.547L704.982 137.027C710 139.006 715.722 137.4 718.978 133.099L721.54 129.714C724.463 125.852 723.411 120.311 719.276 117.79L717.987 117.004C715.369 115.408 711.985 115.905 709.937 118.186C707.741 120.631 704.045 121.003 701.406 119.044L693.816 113.409C687.889 109.01 679.782 109.01 673.856 113.409L670.289 116.057C664.992 119.989 657.899 120.501 652.092 117.373L647.463 114.878C642.02 111.945 635.413 112.199 630.211 115.541L628.657 116.54C623.013 120.165 615.765 120.133 610.154 116.458L604.285 112.614C598.239 108.653 590.349 108.949 584.616 113.352L581.252 115.935C576.124 119.873 569.075 120.169 563.634 116.674C557.659 112.835 549.829 113.605 544.716 118.533L544.123 119.103C538.379 124.639 529.48 125.226 523.058 120.494L517.412 116.333C512.245 112.526 505.376 111.953 499.65 114.851L492.737 118.35C487.621 120.94 481.544 120.776 476.575 117.914L471.688 115.099C466.355 112.028 459.779 112.078 454.494 115.231L450.464 117.635C445.395 120.658 439.121 120.837 433.888 118.106L426.466 114.231C421.537 111.659 415.662 111.659 410.733 114.231L403.16 118.184C398.009 120.873 391.843 120.745 386.808 117.845L381.748 114.93C376.573 111.949 370.212 111.903 364.994 114.809L360.255 117.447C354.683 120.549 347.844 120.272 342.541 116.729L340.499 115.365C335.621 112.106 329.407 111.592 324.06 114.006L315.092 118.055C309.082 120.768 302.046 119.761 297.038 115.471L295.417 114.083C289.797 109.269 281.708 108.644 275.415 112.537L267.942 117.16C262.625 120.449 255.931 120.555 250.513 117.434L247.037 115.432C241.4 112.185 234.406 112.44 229.02 116.087L220.97 121.538C214.842 125.687 206.631 124.9 201.404 119.661C195.954 114.199 187.305 113.605 181.16 118.271L176.808 121.575C171.171 125.855 163.473 126.194 157.481 122.428L154.175 120.35C148.311 116.663 140.796 116.904 135.179 120.957L132.911 122.595C127.73 126.334 120.89 126.853 115.204 123.937L104.926 118.666C99.5875 115.929 93.2011 116.208 88.1216 119.401L81.2558 123.717C76.3308 126.812 70.1649 127.175 64.9109 124.678L50.7689 117.956C45.8683 115.627 40.1504 115.777 35.3787 118.36Z" fill="#2969F6"/>
<path d="M255.379 73.3601L240.886 81.2052C238.132 82.6959 234.74 82.3062 232.396 80.2298C227.586 75.9696 220 79.3842 220 85.8093V88.4163C220 92.4773 222.832 95.9885 226.801 96.8479L235.719 98.7786C239.902 99.6845 244.274 98.9786 247.96 96.802L258.396 90.6397C263.533 87.6059 269.885 87.4875 275.132 90.3278L285.499 95.9393C290.413 98.5994 296.321 98.6745 301.302 96.1401L309.328 92.0559C313.761 89.7996 318.961 89.5987 323.556 91.5061L336.667 96.9493C341.582 98.9893 347.167 98.6109 351.761 95.9268L354.942 94.0685C360.738 90.6819 367.985 91.0235 373.437 94.9403L377.825 98.0927C383.603 102.244 391.355 102.358 397.253 98.3775L403.932 93.8701C408.87 90.5375 415.193 90.033 420.597 92.5404L427.557 95.7698C433.393 98.4778 440.259 97.6586 445.294 93.6535L447.425 91.9587C453.535 87.0988 462.17 87.0253 468.362 91.7804L469.129 92.3695C475.153 96.9962 483.517 97.0644 489.616 92.5365L491.723 90.9725C497.586 86.62 505.574 86.4978 511.567 90.669L515.489 93.3989C521.348 97.476 529.129 97.4596 534.97 93.3578L542.39 88.1475C548.49 83.8638 556.672 84.0679 562.551 88.6504C567.804 92.7444 574.967 93.3836 580.861 90.2842L585.358 87.9196C590.386 85.2756 596.402 85.318 601.393 88.0327L606.289 90.6961C611.614 93.5924 618.077 93.4348 623.254 90.2822L629.757 86.3222C635.188 83.015 642.01 83.015 647.441 86.3222L653.8 90.1943C659.054 93.3938 665.627 93.5053 670.986 90.4857L674.043 88.7635C679.577 85.6454 686.389 85.8731 691.702 89.3538L697.963 93.4543C704.098 97.4732 712.12 97.1039 717.86 92.5381L719.37 91.3373C725.11 86.7716 733.131 86.4023 739.267 90.4212L745.209 94.3136C750.689 97.9027 757.742 98.0245 763.342 94.6268L769.049 91.1647C771.827 89.4789 775.217 89.1344 778.278 90.2268L780.548 91.0369C786.472 93.1513 792.703 88.7592 792.703 82.4688C792.703 79.3723 791.128 76.4884 788.523 74.8147L784.326 72.1186C777.945 68.0195 769.584 68.8409 764.123 74.1033C758.379 79.639 749.48 80.2263 743.058 75.4938L737.412 71.3335C732.245 67.5264 725.376 66.9532 719.65 69.8513L712.737 73.3503C707.621 75.9399 701.544 75.7758 696.575 72.9138L691.688 70.099C686.355 67.0276 679.779 67.0779 674.494 70.2307L670.464 72.6347C665.395 75.6585 659.121 75.8367 653.888 73.1056L646.466 69.2312C641.537 66.6586 635.662 66.6586 630.733 69.2312L623.16 73.1843C618.009 75.8726 611.843 75.7446 606.808 72.845L601.748 69.9304C596.573 66.9494 590.212 66.9031 584.994 69.8086L580.255 72.447C574.683 75.5491 567.844 75.272 562.541 71.7293L560.499 70.3649C555.621 67.1058 549.407 66.5921 544.06 69.006L535.092 73.0546C529.082 75.7676 522.046 74.7607 517.038 70.4713L515.417 69.0831C509.797 64.2689 501.708 63.6437 495.415 67.537L487.942 72.16C482.625 75.4493 475.931 75.5545 470.513 72.434L467.037 70.4317C461.4 67.1853 454.406 67.4396 449.02 71.0865L440.97 76.5379C434.842 80.6872 426.631 79.8996 421.404 74.6611C415.954 69.1989 407.305 68.6051 401.16 73.2711L396.808 76.5749C391.171 80.8545 383.473 81.1942 377.481 77.4277L374.175 75.3496C368.311 71.6631 360.796 71.9036 355.179 75.9575L352.911 77.5948C347.73 81.334 340.89 81.8525 335.204 78.937L324.926 73.6662C319.588 70.9285 313.201 71.2076 308.122 74.4006L301.256 78.7165C296.331 81.8124 290.165 82.1751 284.911 79.6779L270.769 72.9564C265.868 70.6272 260.15 70.7772 255.379 73.3601Z" fill="#2969F6"/>
<path d="M442.948 158C435.948 158.5 436.948 140.334 437.948 130.5C433.781 126.334 421.948 117.2 407.948 114C390.448 110 397.448 69.5002 417.948 101.5C434.348 127.1 438.115 123.167 437.948 118V69.5002C437.948 51.5002 428.448 54.0002 415.448 45.5002C402.448 37.0003 399.448 32.5002 415.448 27.5002C431.448 22.5003 432.448 67.0002 437.948 43.0002C443.448 19.0002 431.448 19.5002 428.448 14.5002C426.048 10.5002 437.781 3.16691 443.948 0.000244141C470.448 19.5002 450.448 7.00024 443.948 32.5002C437.448 58.0001 450.448 49.0002 458.448 32.5002C466.448 16.0002 472.448 19.0002 480.948 32.5002C489.448 46.0002 465.948 41.0002 450.448 54.0002C434.948 67.0002 446.448 101.5 443.948 118C441.448 134.5 454.448 116.5 458.448 105C462.448 93.5002 467.948 92.0002 475.948 101.5C483.948 111 446.111 124.371 443.948 130.5C440.948 139 450.001 157.496 442.948 158Z" fill="#E0FC52"/>
<path d="M448.448 86.0001C446.448 84.6671 448.648 56.9001 461.448 62.5001C474.248 68.1001 451.448 88 448.448 86.0001Z" fill="#E0FC52"/>
<path d="M434.526 84.6551C436.304 83.0387 429.987 55.9106 418.165 63.3574C406.344 70.8042 431.857 87.0803 434.526 84.6551Z" fill="#E0FC52"/>
</svg>
