<svg width="209" height="208" viewBox="0 0 209 208" fill="none" xmlns="http://www.w3.org/2000/svg">
<path d="M208.625 104C208.625 161.438 162.063 208 104.625 208C47.1874 208 0.625 161.438 0.625 104C0.625 46.5624 47.1874 0 104.625 0C162.063 0 208.625 46.5624 208.625 104ZM31.825 104C31.825 144.206 64.4187 176.8 104.625 176.8C144.831 176.8 177.425 144.206 177.425 104C177.425 63.7937 144.831 31.2 104.625 31.2C64.4187 31.2 31.825 63.7937 31.825 104Z" fill="#1D1D1D"/>
<path d="M104.625 15.6C104.625 6.98436 111.648 -0.119752 120.167 1.16781C133.864 3.23805 147.064 8.03259 158.965 15.3254C175.318 25.3469 188.582 39.6955 197.29 56.785C205.997 73.8744 209.809 93.0389 208.304 112.16C207.209 126.074 203.33 139.571 196.953 151.87C192.988 159.518 183.112 161.024 176.142 155.96V155.96C169.172 150.896 167.808 141.175 171.274 133.288C174.542 125.85 176.557 117.884 177.201 109.712C178.254 96.3273 175.586 82.9121 169.49 70.9495C163.395 58.9869 154.11 48.9428 142.663 41.9278C135.674 37.6447 128.044 34.5927 120.106 32.8651C111.688 31.0329 104.625 24.2156 104.625 15.6V15.6Z" fill="#E0FC52"/>
</svg>
