<svg width="209" height="208" viewBox="0 0 209 208" fill="none" xmlns="http://www.w3.org/2000/svg">
<path d="M208.875 104C208.875 161.438 162.313 208 104.875 208C47.4374 208 0.875 161.438 0.875 104C0.875 46.5624 47.4374 0 104.875 0C162.313 0 208.875 46.5624 208.875 104ZM32.075 104C32.075 144.206 64.6687 176.8 104.875 176.8C145.081 176.8 177.675 144.206 177.675 104C177.675 63.7937 145.081 31.2 104.875 31.2C64.6687 31.2 32.075 63.7937 32.075 104Z" fill="#1D1D1D"/>
<path d="M104.875 15.6C104.875 6.98436 111.898 -0.11976 120.417 1.1678C129.53 2.54517 138.42 5.12808 146.853 8.84814C154.735 12.3257 156.859 22.087 152.242 29.3614V29.3614C147.626 36.6359 138.01 38.6076 129.92 35.6436C126.799 34.5002 123.604 33.5719 120.356 32.8651C111.938 31.0329 104.875 24.2156 104.875 15.6V15.6Z" fill="#E0FC52"/>
</svg>
