<svg width="128" height="17" viewBox="0 0 128 17" fill="none" xmlns="http://www.w3.org/2000/svg">
<mask id="mask0_6_481" style="mask-type:luminance" maskUnits="userSpaceOnUse" x="0" y="0" width="128" height="17">
<path d="M128 0.000244141H0V16.8424H128V0.000244141Z" fill="white"/>
</mask>
<g mask="url(#mask0_6_481)">
<path d="M15.3288 6.47911C15.6569 6.69346 16.0178 6.85419 16.3978 6.95636V9.83984C14.8504 10.2568 13.7105 11.6366 13.7105 13.2675C13.7105 13.5723 13.7503 13.8737 13.8297 14.1651L11.2581 15.6051C10.9697 15.3305 10.6381 15.1045 10.2737 14.9353V11.6248C11.5327 11.0471 12.3583 9.81638 12.3583 8.41483C12.3583 8.32607 12.3548 8.23732 12.3479 8.14856L15.3288 6.47911ZM15.4289 5.3237L11.2616 7.65795C11.3358 7.89739 11.3773 8.15193 11.3773 8.41483C11.3773 9.65228 10.4862 10.6888 9.29272 10.9534V15.6051C10.0284 15.7692 10.6485 16.2264 11.0163 16.8426L15.0576 14.5803C14.8262 14.1952 14.6932 13.7481 14.6932 13.2709C14.6932 11.8325 15.897 10.6653 17.3805 10.6653V6.1375C16.6102 6.1375 15.9194 5.82435 15.4289 5.3237Z" fill="white"/>
<path d="M11.2904 1.24105L13.8223 2.65935C13.748 2.94401 13.71 3.23705 13.71 3.53176C13.71 3.63055 13.7135 3.72935 13.7221 3.82815L10.7637 5.48422C10.1575 5.08067 9.43215 4.85964 8.68778 4.85964C7.94864 4.85964 7.22673 5.079 6.62226 5.47753L3.65517 3.81642C3.66209 3.72265 3.66727 3.62721 3.66727 3.53176C3.66727 3.23705 3.62927 2.94401 3.55501 2.65935L6.08511 1.24272C6.76559 1.90582 7.69819 2.29263 8.68604 2.29263C9.67568 2.29263 10.61 1.90415 11.2904 1.24105ZM11.0348 0.000244141C10.5754 0.798981 9.6964 1.33984 8.68604 1.33984C7.67574 1.33984 6.79669 0.798981 6.3373 0.00191864L2.33398 2.2424C2.55678 2.62251 2.6863 3.06123 2.6863 3.53009C2.6863 3.79968 2.64486 4.05923 2.56541 4.30203L6.72758 6.63126C7.21808 6.12387 7.91405 5.8074 8.68778 5.8074C9.46493 5.8074 10.1661 6.12723 10.6566 6.63963L14.8153 4.31208C14.7359 4.06425 14.691 3.80136 14.691 3.52841C14.691 3.05955 14.8188 2.62084 15.0433 2.24072L11.0348 0.000244141Z" fill="white"/>
<path d="M2.06037 6.47199L5.03261 8.13644C5.0257 8.22857 5.02225 8.32232 5.02225 8.41613C5.02225 9.81599 5.8478 11.0451 7.10333 11.6244V14.9366C6.74066 15.1057 6.40735 15.3318 6.12065 15.6047L3.5508 14.1663C3.63025 13.875 3.66997 13.5719 3.66997 13.2671C3.66997 11.6345 2.53012 10.2564 0.982686 9.83946V6.95761C1.36437 6.8538 1.7305 6.68971 2.06037 6.47199ZM1.95674 5.31494C1.46626 5.82065 0.771992 6.13543 0 6.13543V10.6616C1.48353 10.6616 2.68728 11.8287 2.68728 13.2671C2.68728 13.7444 2.5543 14.1915 2.32287 14.5766L6.3607 16.8372C6.72859 16.2226 7.34686 15.7655 8.08258 15.6014V10.9529C6.89089 10.6867 6.00146 9.6519 6.00146 8.41445C6.00146 8.14649 6.04295 7.88864 6.12065 7.64583L1.95674 5.31494Z" fill="white"/>
<path d="M34.9605 12.0265V9.80446C34.9605 8.6926 34.0279 7.78835 32.8811 7.78835H24.0611C24.0248 7.78835 23.9886 7.79172 23.9523 7.79671H23.638C23.2978 7.79671 23.0214 7.52881 23.0214 7.19893V4.97687C23.0214 4.647 23.2978 4.37908 23.638 4.37908H34.1142C34.5184 4.37908 34.8465 4.06092 34.8465 3.66909C34.8465 3.27726 34.5184 2.95911 34.1142 2.95911H23.638C22.4912 2.95911 21.5586 3.86334 21.5586 4.9752V7.19725C21.5586 8.30911 22.4912 9.21336 23.638 9.21336H32.458C32.4943 9.21336 32.5306 9.20999 32.5668 9.205H32.8811C33.2214 9.205 33.4977 9.4729 33.4977 9.80278V12.0248C33.4977 12.3547 33.2214 12.6227 32.8811 12.6227H22.4049C22.0008 12.6227 21.6726 12.9408 21.6726 13.3326C21.6726 13.7245 22.0008 14.0426 22.4049 14.0426H32.8811C34.0279 14.0426 34.9605 13.1384 34.9605 12.0265Z" fill="white"/>
<path d="M49.8756 12.0149V5.06236C49.8756 3.95049 48.943 3.04626 47.7962 3.04626H38.591C37.4443 3.04626 36.5117 3.95049 36.5117 5.06236V12.0149C36.5117 13.1267 37.4443 14.031 38.591 14.031H47.7962C48.943 14.031 49.8756 13.1251 49.8756 12.0149ZM37.9745 5.06236C37.9745 4.73248 38.2508 4.46457 38.591 4.46457H47.7962C48.1364 4.46457 48.4127 4.73248 48.4127 5.06236V12.0149C48.4127 12.3447 48.1364 12.6126 47.7962 12.6126H38.591C38.2508 12.6126 37.9745 12.3447 37.9745 12.0149V5.06236Z" fill="white"/>
<path d="M128.001 12.0149V5.06239C128.001 3.95053 127.068 3.0463 125.922 3.0463H116.716C115.569 3.0463 114.637 3.95053 114.637 5.06239V12.0149C114.637 13.1268 115.569 14.031 116.716 14.031H125.922C127.068 14.031 128.001 13.1251 128.001 12.0149ZM116.102 5.06239C116.102 4.73252 116.378 4.4646 116.718 4.4646H125.923C126.264 4.4646 126.54 4.73252 126.54 5.06239V12.0149C126.54 12.3448 126.264 12.6127 125.923 12.6127H116.718C116.378 12.6127 116.102 12.3448 116.102 12.0149V5.06239Z" fill="white"/>
<path d="M53.1093 13.3216V10.2907H59.6184C60.0226 10.2907 60.351 9.97258 60.351 9.58072C60.351 9.18891 60.0226 8.87077 59.6184 8.87077H53.1093V5.06294C53.1093 4.73306 53.3857 4.46514 53.7259 4.46514H62.6993C63.1035 4.46514 63.432 4.14699 63.432 3.75516C63.432 3.36332 63.1035 3.04517 62.6993 3.04517H53.7259C52.5791 3.04517 51.6465 3.9494 51.6465 5.06126V13.3199C51.6465 13.7117 51.9746 14.0299 52.3788 14.0299C52.7829 14.0315 53.1093 13.7134 53.1093 13.3216Z" fill="white"/>
<path d="M65.5488 4.46514H70.6525V13.1725C70.6525 13.5644 70.9803 13.8825 71.3845 13.8825C71.7888 13.8825 72.1166 13.5644 72.1166 13.1725V4.46514H77.2203C77.6245 4.46514 77.9524 4.14699 77.9524 3.75516C77.9524 3.36332 77.6245 3.04517 77.2203 3.04517H65.5504C65.1468 3.04517 64.8184 3.36332 64.8184 3.75516C64.8167 4.14699 65.1445 4.46514 65.5488 4.46514Z" fill="white"/>
<path d="M85.537 13.8434C85.9412 13.8434 86.2691 13.5253 86.2691 13.1335V10.2901H96.051C97.1979 10.2901 98.1304 9.38592 98.1304 8.27407V5.06236C98.1304 3.95049 97.1979 3.04626 96.051 3.04626H86.8855C85.7391 3.04626 84.8067 3.95049 84.8067 5.06236V13.1351C84.8044 13.5253 85.1328 13.8434 85.537 13.8434ZM86.8838 4.46457H96.0493C96.3895 4.46457 96.6663 4.73248 96.6663 5.06236V8.27407C96.6663 8.60395 96.3895 8.87185 96.0493 8.87185H86.2674V5.06236C86.2674 4.73248 86.5436 4.46457 86.8838 4.46457Z" fill="white"/>
<path d="M100.442 13.8434C100.846 13.8434 101.174 13.5253 101.174 13.1335V10.2901H106.996C107.039 10.3705 107.1 10.4442 107.175 10.5061L111.065 13.6425C111.201 13.753 111.367 13.8066 111.533 13.8066C111.742 13.8066 111.951 13.7195 112.096 13.5504C112.355 13.249 112.312 12.8019 112.001 12.5507L109.196 10.2885H110.956C112.103 10.2885 113.035 9.38424 113.035 8.27238V5.06236C113.035 3.95049 112.103 3.04626 110.956 3.04626H101.79C100.644 3.04626 99.7109 3.95049 99.7109 5.06236V13.1351C99.7093 13.5253 100.038 13.8434 100.442 13.8434ZM101.789 4.46457H110.954C111.294 4.46457 111.571 4.73248 111.571 5.06236V8.27407C111.571 8.60395 111.294 8.87185 110.954 8.87185H101.172V5.06236C101.172 4.73248 101.448 4.46457 101.789 4.46457Z" fill="white"/>
</g>
</svg>
