<svg width="422" height="328" viewBox="0 0 422 328" fill="none" xmlns="http://www.w3.org/2000/svg">
<rect x="122.333" y="53.2866" width="282" height="222" rx="30" fill="#D3D3D3"/>
<rect x="122.333" y="57.8608" width="282" height="222" rx="30" fill="white"/>
<path d="M0.333374 42H391.667C408.235 42 421.667 55.4315 421.667 72V298C421.667 314.569 408.235 328 391.667 328H30.3334C13.7648 328 0.333374 314.569 0.333374 298V42Z" fill="#2969F6"/>
<path fill-rule="evenodd" clip-rule="evenodd" d="M30.3334 0C13.7648 0 0.333374 13.4315 0.333374 30V40C0.333374 56.5685 13.7648 70 30.3334 70H156.33C172.552 70 183.997 57.9921 186.056 44.2677C189.218 47.0439 195.606 47.2877 198.645 44.1667C200.301 42.4655 205.135 42.9141 208.912 43.2645C210.247 43.3884 211.45 43.5 212.333 43.5L227.333 42C215.456 42 190.593 35.131 181.466 23.5842C180.654 22.3618 179.736 21.1706 178.708 20.0195L169.779 10.0195C164.088 3.64475 155.947 0 147.401 0H30.3334Z" fill="#2969F6"/>
</svg>
