<svg width="209" height="208" viewBox="0 0 209 208" fill="none" xmlns="http://www.w3.org/2000/svg">
<path d="M208.375 104C208.375 161.438 161.813 208 104.375 208C46.9374 208 0.375 161.438 0.375 104C0.375 46.5624 46.9374 0 104.375 0C161.813 0 208.375 46.5624 208.375 104ZM31.575 104C31.575 144.206 64.1687 176.8 104.375 176.8C144.581 176.8 177.175 144.206 177.175 104C177.175 63.7937 144.581 31.2 104.375 31.2C64.1687 31.2 31.575 63.7937 31.575 104Z" fill="#1D1D1D"/>
<path d="M104.375 15.6C104.375 6.98436 111.398 -0.119709 119.917 1.16782C129.841 2.66783 139.524 5.60093 148.656 9.89799C162.508 16.4162 174.75 25.9122 184.508 37.7079C194.267 49.5037 201.3 63.3083 205.108 78.1363C208.915 92.9643 209.401 108.45 206.533 123.488C203.664 138.525 197.511 152.744 188.513 165.13C179.514 177.515 167.893 187.761 154.477 195.136C141.062 202.511 126.184 206.834 110.905 207.795C100.833 208.428 90.7502 207.591 80.9702 205.332C72.5756 203.393 68.6611 194.203 71.8328 186.192V186.192C75.0044 178.182 84.0805 174.443 92.5823 175.839C97.9726 176.723 103.462 177.001 108.946 176.656C119.641 175.983 130.056 172.958 139.447 167.795C148.837 162.633 156.973 155.46 163.271 146.791C169.57 138.121 173.877 128.168 175.886 117.641C177.894 107.115 177.553 96.275 174.888 85.8954C172.223 75.5158 167.299 65.8526 160.468 57.5955C153.638 49.3385 145.068 42.6914 135.372 38.1286C130.399 35.7888 125.193 34.0267 119.856 32.8651C111.437 31.0329 104.375 24.2156 104.375 15.6V15.6Z" fill="#E0FC52"/>
</svg>
