<svg width="215" height="77" viewBox="0 0 215 77" fill="none" xmlns="http://www.w3.org/2000/svg">
<path d="M140.398 15.2332C141.226 23.6656 136.821 33.4844 156.399 37.3215C162.477 48.5057 151.37 40.1263 140.087 37.915C128.805 35.7038 146.12 54.6038 135.99 58.8209C125.86 63.038 128.813 55.0022 131.415 41.7286C134.016 28.4551 126.43 39.0288 117.953 41.8469C109.475 44.6649 126.373 58.6591 116.705 62.2775C107.037 65.896 115.2 33.0373 110.867 44.5933C106.535 56.1492 104.844 64.777 100.126 62.4741C95.409 60.1712 115.531 33.1023 100.607 49.474C85.6822 65.8458 77.2746 52.4821 76.2658 48.8385C75.257 45.1949 91.9723 46.0589 98.5892 42.1869C105.206 38.3149 85.6208 32.7535 89.648 28.0294C93.6751 23.3053 93.9035 30.931 99.8899 35.5501C105.876 40.1692 118.876 40.6496 110.827 34.2479C102.778 27.8461 101.489 20.3572 106.85 17.6175C112.211 14.8778 113.924 28.9968 122.884 30.7528C131.843 32.5088 117.281 22.4184 116.916 13.7322C116.551 5.04604 123.351 14.3043 129.747 22.105C136.144 29.9058 140.139 34.1347 135.057 23.1456C129.974 12.1565 139.362 4.69272 140.398 15.2332Z" fill="#E0FC52"/>
<path d="M66.0053 61.6225C66.8336 53.1901 62.4282 43.3714 82.0067 39.5342C88.0848 28.35 76.9774 36.7294 65.6949 38.9407C54.4124 41.1519 71.7279 22.2519 61.5976 18.0348C51.4673 13.8177 54.4205 21.8535 57.022 35.1271C59.6235 48.4007 52.0378 37.8269 43.56 35.0088C35.0822 32.1908 51.9809 18.1967 42.3125 14.5782C32.6441 10.9597 40.807 43.8184 36.4746 32.2625C32.1423 20.7065 30.4513 12.0787 25.7339 14.3816C21.0164 16.6845 41.1388 43.7534 26.2142 27.3817C11.2897 11.0099 2.88205 24.3736 1.87322 28.0172C0.864394 31.6608 17.5798 30.7969 24.1966 34.6688C30.8134 38.5408 11.2282 44.1022 15.2554 48.8263C19.2825 53.5504 19.5109 45.9247 25.4973 41.3056C31.4837 36.6865 44.4838 36.2061 36.4347 42.6078C28.3856 49.0096 27.0966 56.4985 32.4578 59.2382C37.8189 61.9779 39.5314 47.8589 48.491 46.1029C57.4506 44.3469 42.8882 54.4373 42.523 63.1235C42.1579 71.8097 48.9581 62.5515 55.3547 54.7507C61.7513 46.9499 65.7466 42.721 60.6641 53.7101C55.5815 64.6992 64.9698 72.163 66.0053 61.6225Z" fill="#E0FC52"/>
<path fill-rule="evenodd" clip-rule="evenodd" d="M166.016 32.2212C163.415 31.2058 159.296 28.7682 163.625 27.1407C166.149 26.1916 168.546 26.6611 170.33 27.0107C172.37 27.4104 173.61 27.6533 173.326 25.4393C172.793 21.289 175.001 8.2922 182.748 22.0063C183.941 19.2401 186.906 14.8309 189.216 19.3232C190.694 22.1984 190.528 23.2072 190.415 23.8918C190.308 24.5442 190.249 24.9021 191.708 26.3005C193.042 27.5795 194.152 26.6218 195.307 25.6254C196.74 24.3893 198.241 23.0937 200.326 25.9353C202.905 29.449 201.593 31.284 200.656 32.5946C200.225 33.1982 199.873 33.6905 200.017 34.1843C200.166 34.6953 201.121 35.2364 202.256 35.88C204.599 37.2089 207.712 38.9744 206.099 41.8126C204.708 44.2578 202.719 44.1293 200.975 44.0166C199.715 43.9351 198.583 43.862 197.899 44.775C197.324 45.5426 198.034 46.3157 198.918 47.2792C200.541 49.0468 202.752 51.4553 198.696 55.6472C195.022 59.4444 194.021 56.6574 193.174 54.3014C192.577 52.6389 192.056 51.191 190.729 52.4228C189.36 53.6921 189.84 55.7189 190.271 57.5385C190.851 59.987 191.342 62.0604 187.122 61.4085C182.889 60.7548 182.739 59.0584 182.576 57.2138C182.455 55.8517 182.328 54.4088 180.544 53.2454C178.761 52.0824 177.935 53.4996 177.027 55.0602C175.796 57.175 174.412 59.553 170.282 56.1304C165.98 52.5648 168.154 51.0971 170.169 49.7365C171.516 48.8273 172.792 47.9658 172.018 46.5581C171.181 45.0373 169.905 44.9179 168.55 44.7912C166.773 44.625 164.859 44.446 163.618 41.0802C162.293 37.4849 164.183 37.5696 165.935 37.6481C167.074 37.6991 168.155 37.7475 168.254 36.7795C168.456 34.8067 168.616 33.2365 166.016 32.2212ZM189.027 34.6052C190.026 36.5459 188.865 41.5488 185.532 41.233C183.15 41.0072 182.211 38.8742 181.424 37.0868C180.835 35.7491 180.332 34.605 179.372 34.5992C177.13 34.5855 184.13 28.745 189.027 34.6052Z" fill="#E0FC52"/>
</svg>
