<svg width="209" height="208" viewBox="0 0 209 208" fill="none" xmlns="http://www.w3.org/2000/svg">
<path d="M208.125 104C208.125 161.438 161.563 208 104.125 208C46.6874 208 0.125 161.438 0.125 104C0.125 46.5624 46.6874 0 104.125 0C161.563 0 208.125 46.5624 208.125 104ZM31.325 104C31.325 144.206 63.9187 176.8 104.125 176.8C144.331 176.8 176.925 144.206 176.925 104C176.925 63.7937 144.331 31.2 104.125 31.2C63.9187 31.2 31.325 63.7937 31.325 104Z" fill="#1D1D1D"/>
<path d="M104.125 15.6C104.125 6.98436 111.148 -0.1199 119.667 1.16765C139.049 4.09697 157.322 12.4654 172.287 25.4507C191.202 41.8644 203.559 64.5524 207.087 89.3463C210.616 114.14 205.079 139.375 191.495 160.414C177.91 181.453 157.189 196.884 133.14 203.871C109.091 210.858 83.3276 208.932 60.5842 198.447C37.8409 187.962 19.6448 169.622 9.33898 146.797C-0.966854 123.972 -2.69023 98.195 4.48548 74.2012C10.1624 55.2191 21.1074 38.3619 35.9021 25.5035C42.405 19.8518 52.1416 22.0869 56.7581 29.3613C61.3746 36.6357 59.064 46.176 52.9377 52.234C44.3158 60.7597 37.8987 71.3663 34.3773 83.1409C29.3543 99.9365 30.5607 117.981 37.7748 133.958C44.9889 149.936 57.7261 162.773 73.6465 170.113C89.5668 177.452 107.601 178.8 124.435 173.909C141.27 169.019 155.774 158.217 165.284 143.49C174.793 128.762 178.669 111.098 176.199 93.7424C173.729 76.3867 165.079 60.5051 151.838 49.0155C142.556 40.9607 131.454 35.4437 119.606 32.865C111.188 31.0327 104.125 24.2156 104.125 15.6Z" fill="#E0FC52"/>
</svg>
