<svg width="220" height="103" viewBox="0 0 220 103" fill="none" xmlns="http://www.w3.org/2000/svg">
<g clip-path="url(#clip0_2226_417)">
<path d="M119.919 144.039C110.625 149.197 127.055 165.523 138.989 174.232C142.636 174.713 148.57 180.088 143.131 197.739C136.332 219.802 150.114 225.218 152.524 187.377C155.156 175.157 198.884 169.233 192.681 157.667C186.477 146.101 176.438 161.84 162.353 172.615C148.268 183.391 158.721 172.856 159.473 155.117C160.226 137.377 203.285 136.935 195.72 124.565C188.156 112.194 181.327 129.648 167.452 139.445C153.578 149.243 163.482 129.384 165.062 122.052C166.641 114.72 209.64 105.059 200.466 95.4103C191.292 85.762 175.688 113.089 168.423 113.57C161.159 114.051 169.108 93.7699 173.267 91.0853C177.426 88.4008 209.949 77.5059 201.475 66.9853C193 56.4648 194.068 70.5043 180.298 79.8134C166.529 89.1225 172.373 78.6176 171.057 68.1048C169.742 57.592 187.971 25.2046 170.893 26.129C153.816 27.0534 170.636 70.06 167.131 81.5802C163.626 93.1005 159.853 63.1337 150.641 56.0346C141.429 48.9355 141.001 58.0496 148.768 76.6013C156.535 95.1531 164.83 78.0157 163.205 95.0556C161.58 112.096 165.318 111.366 155.647 108.771C145.977 106.177 150.926 83.2037 135.63 82.9776C120.335 82.7515 140.533 102.958 150.789 112.328C161.046 121.698 159.159 123.338 155.473 140.445C151.788 157.553 142.864 111.132 131.268 112.726C119.672 114.32 132.846 138.64 145.938 141.971C159.03 145.303 157.165 158.711 151.629 174.909C146.094 191.106 129.214 138.88 119.919 144.039Z" fill="white"/>
<path d="M87.5164 196.152C83.2605 205.421 75.727 168.816 71.9789 147.171C47.1059 156.199 39.9868 138.792 34.2957 130.59C29.0481 123.027 17.9879 129.654 37.3288 119.541C51.7769 111.987 65.1617 122.383 71.099 129.703C67.6459 123.296 69.5954 105.802 63.1227 109.502C56.0321 113.554 37.9519 105.084 22.7447 95.1437C7.53751 85.2034 0.446322 89.2557 22.7826 81.619C45.1188 73.9823 60.1116 96.6941 63.9229 95.798C67.7341 94.902 54.7978 74.0921 57.9006 70.1828C60.3829 67.0553 65.4903 85.3592 67.7337 94.9021C69.5961 85.7189 77.3331 71.6284 83.0008 67.4615C93.2884 59.898 96.6359 46.7651 95.8516 70.8005C95.2241 90.0288 78.498 101.912 70.2133 105.449C69.6162 113.858 73.8613 125.528 76.0584 130.311C80.246 107.066 100.26 102.095 109.743 102.516C108.76 149.654 84.8671 136.986 79.6009 145.379C74.3348 153.772 92.8364 184.566 87.5164 196.152Z" fill="#D3D3D3"/>
<path d="M43.1548 55.3639C36.2492 50.6272 42.7258 43.2743 46.8273 40.1899C53.5786 36.0586 56.8472 46.3146 57.6377 51.959C55.6874 55.0676 50.0604 60.1007 43.1548 55.3639Z" fill="#D3D3D3"/>
</g>
<defs>
<clipPath id="clip0_2226_417">
<rect width="220" height="103" fill="white"/>
</clipPath>
</defs>
</svg>
