<svg width="220" height="79" viewBox="0 0 220 79" fill="none" xmlns="http://www.w3.org/2000/svg">
<path fill-rule="evenodd" clip-rule="evenodd" d="M49.125 31.2212C51.7257 30.2058 55.845 27.7682 51.5159 26.1407C48.9914 25.1916 46.5949 25.6611 44.8106 26.0107C42.7703 26.4104 41.5305 26.6533 41.8147 24.4393C42.3475 20.289 40.1393 7.2922 32.3929 21.0063C31.1992 18.2401 28.2344 13.8309 25.9247 18.3232C24.4463 21.1984 24.6126 22.2072 24.7254 22.8918C24.8329 23.5442 24.8919 23.9021 23.4328 25.3005C22.0982 26.5795 20.9882 25.6218 19.8334 24.6254C18.4008 23.3893 16.8993 22.0937 14.8142 24.9353C12.2359 28.449 13.5476 30.284 14.4844 31.5946C14.9159 32.1982 15.2678 32.6905 15.1235 33.1843C14.9742 33.6953 14.0199 34.2364 12.8851 34.88C10.5417 36.2089 7.42824 37.9744 9.04196 40.8126C10.4323 43.2578 12.4219 43.1293 14.1656 43.0166C15.4258 42.9351 16.5576 42.862 17.2416 43.775C17.8168 44.5426 17.1071 45.3157 16.2226 46.2792C14.5998 48.0468 12.3887 50.4553 16.4444 54.6472C20.1182 58.4444 21.1198 55.6574 21.9665 53.3014C22.5639 51.6389 23.0843 50.191 24.4121 51.4228C25.7803 52.6921 25.3002 54.7189 24.8693 56.5385C24.2893 58.987 23.7982 61.0604 28.019 60.4085C32.2513 59.7548 32.4014 58.0584 32.5647 56.2138C32.6852 54.8517 32.8129 53.4088 34.5968 52.2454C36.3801 51.0824 37.2051 52.4996 38.1136 54.0602C39.3447 56.175 40.7291 58.553 44.8588 55.1304C49.161 51.5648 46.987 50.0971 44.9715 48.7365C43.6247 47.8273 42.3486 46.9658 43.123 45.5581C43.9597 44.0373 45.2356 43.9179 46.5911 43.7912C48.3681 43.625 50.282 43.446 51.5225 40.0802C52.8476 36.4849 50.9572 36.5696 49.2055 36.6481C48.0664 36.6991 46.9859 36.7475 46.8867 35.7795C46.6845 33.8067 46.5242 32.2365 49.125 31.2212ZM26.1136 33.6052C25.1142 35.5459 26.276 40.5488 29.6085 40.233C31.991 40.0072 32.9298 37.8742 33.7164 36.0868C34.3052 34.7491 34.8087 33.605 35.7685 33.5992C38.0108 33.5855 31.0111 27.745 26.1136 33.6052Z" fill="#E0FC52"/>
<path d="M75.9752 15.2332C75.1469 23.6656 79.5522 33.4844 59.9737 37.3215C53.8957 48.5057 65.0031 40.1263 76.2856 37.915C87.5681 35.7038 70.2526 54.6038 80.3829 58.8209C90.5132 63.038 87.5599 55.0022 84.9585 41.7286C82.357 28.4551 89.9427 39.0288 98.4205 41.8469C106.898 44.6649 89.9996 58.6591 99.668 62.2775C109.336 65.896 101.174 33.0373 105.506 44.5933C109.838 56.1492 111.529 64.777 116.247 62.4741C120.964 60.1712 100.842 33.1023 115.766 49.474C130.691 65.8458 139.098 52.4821 140.107 48.8385C141.116 45.1949 124.401 46.0589 117.784 42.1869C111.167 38.3149 130.752 32.7535 126.725 28.0294C122.698 23.3053 122.47 30.931 116.483 35.5501C110.497 40.1692 97.4967 40.6496 105.546 34.2479C113.595 27.8461 114.884 20.3572 109.523 17.6175C104.162 14.8778 102.449 28.9968 93.4895 30.7528C84.5298 32.5088 99.0923 22.4184 99.4574 13.7322C99.8226 5.04604 93.0224 14.3043 86.6258 22.105C80.2292 29.9058 76.2339 34.1347 81.3164 23.1456C86.399 12.1565 77.0107 4.69272 75.9752 15.2332Z" fill="#E0FC52"/>
<path d="M153.751 62.975C152.922 54.5426 157.328 44.7239 137.749 40.8867C131.671 29.7025 142.778 38.082 154.061 40.2932C165.344 42.5045 148.028 23.6045 158.158 19.3874C168.289 15.1703 165.335 23.2061 162.734 36.4796C160.132 49.7532 167.718 39.1794 176.196 36.3614C184.674 33.5433 167.775 19.5492 177.443 15.9307C187.112 12.3123 178.949 45.171 183.281 33.615C187.614 22.059 189.305 13.4312 194.022 15.7341C198.739 18.037 178.617 45.1059 193.542 28.7342C208.466 12.3625 216.874 25.7262 217.883 29.3698C218.891 33.0133 202.176 32.1494 195.559 36.0214C188.942 39.8933 208.528 45.4547 204.5 50.1788C200.473 54.9029 200.245 47.2773 194.259 42.6581C188.272 38.039 175.272 37.5586 183.321 43.9604C191.37 50.3621 192.659 57.851 187.298 60.5908C181.937 63.3305 180.225 49.2114 171.265 47.4554C162.305 45.6994 176.868 55.7898 177.233 64.476C177.598 73.1622 170.798 63.904 164.401 56.1032C158.005 48.3024 154.009 44.0735 159.092 55.0626C164.174 66.0517 154.786 73.5155 153.751 62.975Z" fill="#E0FC52"/>
</svg>
