<svg width="60" height="60" viewBox="0 0 60 60" fill="none" xmlns="http://www.w3.org/2000/svg">
<path d="M59.9993 30C59.9993 46.5685 46.5678 60 29.9993 60C13.4307 60 -0.000732422 46.5685 -0.000732422 30C-0.000732422 13.4315 13.4307 0 29.9993 0C46.5678 0 59.9993 13.4315 59.9993 30ZM11.2793 30C11.2793 40.3388 19.6605 48.72 29.9993 48.72C40.338 48.72 48.7193 40.3388 48.7193 30C48.7193 19.6612 40.338 11.28 29.9993 11.28C19.6605 11.28 11.2793 19.6612 11.2793 30Z" fill="#1D1D1D"/>
<path d="M29.9993 5.64C29.9993 2.52511 32.5462 -0.0535853 35.6062 0.5286C39.6178 1.29184 43.4516 2.87003 46.8618 5.18758C51.8356 8.5678 55.6788 13.3648 57.8926 18.9563C60.1064 24.5477 60.5886 30.6754 59.2768 36.5443C57.9649 42.4132 54.9195 47.7524 50.5357 51.8691C46.1519 55.9857 40.632 58.6899 34.6923 59.6306C28.7526 60.5714 22.6673 59.7053 17.2259 57.1448C11.7845 54.5843 7.23824 50.4475 4.17701 45.2712C2.07816 41.7223 0.743805 37.797 0.23396 33.7453C-0.154937 30.6548 2.5786 28.2748 5.68734 28.4704C8.79607 28.666 11.0732 31.3949 11.809 34.4217C12.2431 36.2075 12.9402 37.9297 13.8862 39.5293C15.7964 42.7592 18.6333 45.3406 22.0287 46.9384C25.4241 48.5361 29.2214 49.0766 32.9277 48.4895C36.6341 47.9025 40.0785 46.2151 42.814 43.6463C45.5495 41.0775 47.4498 37.7458 48.2684 34.0836C49.087 30.4214 48.7861 26.5978 47.4047 23.1087C46.0233 19.6197 43.6251 16.6263 40.5215 14.5171C38.9844 13.4725 37.3095 12.6686 35.5544 12.1232C32.5798 11.1989 29.9993 8.75488 29.9993 5.64Z" fill="#E0FC52"/>
</svg>
